<?xml version="1.0" standalone="no"?><svg xmlns:xlink="http://www.w3.org/1999/xlink" xmlns="http://www.w3.org/2000/svg" viewBox="0 0 10000000 5454545.454545454" preserveAspectRatio="xMaxYMax slice"><g transform="scale(16528.92561983471)"><rect x="0" y="0" width="605" height="330" fill="#8d5dfd"/><rect x="0" y="0" width="55" height="55" fill="#8d5dfd"/><rect x="0" y="0" width="27.5" height="27.5" fill="#312058"/><polygon points="0,0 27.5,27.5 0,27.5" fill="#d5c3fe"/><rect x="27.5" y="0" width="27.5" height="27.5" fill="#281b49"/><polygon points="27.5,0 55,0 55,27.5" fill="#b291fe"/><rect x="0" y="27.5" width="27.5" height="27.5" fill="#6f49c7"/><polygon points="0,27.5 27.5,55 0,55" fill="#c0a5fe"/><rect x="27.5" y="27.5" width="27.5" height="27.5" fill="#7b51dd"/><polygon points="27.5,27.5 55,27.5 55,55" fill="#d8c8fe"/><rect x="55" y="0" width="55" height="55" fill="#553899"/><polygon points="55,0 110,0 110,55" fill="#a078fd"/><rect x="110" y="0" width="55" height="55" fill="#8d5dfd"/><rect x="110" y="0" width="27.5" height="27.5" fill="#0e0919"/><polygon points="137.5,0 137.5,27.5 110,27.5" fill="#583a9d"/><rect x="137.5" y="0" width="27.5" height="27.5" fill="#4c3289"/><polygon points="165,0 165,27.5 137.5,27.5" fill="#56389a"/><rect x="110" y="27.5" width="27.5" height="27.5" fill="#986cfd"/><polygon points="110,27.5 137.5,27.5 110,55" fill="#432d79"/><rect x="137.5" y="27.5" width="27.5" height="27.5" fill="#f6f2ff"/><polygon points="165,27.5 165,55 137.5,55" fill="#e7ddff"/><rect x="165" y="0" width="55" height="55" fill="#8d5dfd"/><rect x="165" y="0" width="27.5" height="27.5" fill="#34235e"/><polygon points="165,0 192.5,27.5 165,27.5" fill="#3c276b"/><rect x="192.5" y="0" width="27.5" height="27.5" fill="#322159"/><polygon points="192.5,0 220,0 220,27.5" fill="#a57ffd"/><rect x="165" y="27.5" width="27.5" height="27.5" fill="#9d74fd"/><polygon points="165,27.5 192.5,27.5 165,55" fill="#8e5ffd"/><rect x="192.5" y="27.5" width="27.5" height="27.5" fill="#efe8ff"/><polygon points="220,27.5 220,55 192.5,55" fill="#e2d5ff"/><rect x="220" y="0" width="55" height="55" fill="#d4c2fe"/><polygon points="220,0 275,55 220,55" fill="#18102a"/><rect x="275" y="0" width="55" height="55" fill="#b08ffe"/><polygon points="275,0 330,55 275,55" fill="#2b1c4d"/><rect x="330" y="0" width="55" height="55" fill="#8d5dfd"/><rect x="330" y="0" width="27.5" height="27.5" fill="#462e7e"/><polygon points="330,0 357.5,27.5 330,27.5" fill="#3c286c"/><rect x="357.5" y="0" width="27.5" height="27.5" fill="#a984fe"/><polygon points="385,0 385,27.5 357.5,27.5" fill="#100b1d"/><rect x="330" y="27.5" width="27.5" height="27.5" fill="#56399b"/><polygon points="330,27.5 357.5,27.5 357.5,55" fill="#cdb7fe"/><rect x="357.5" y="27.5" width="27.5" height="27.5" fill="#50358f"/><polygon points="357.5,27.5 385,27.5 385,55" fill="#22173e"/><rect x="385" y="0" width="55" height="55" fill="#19102c"/><polygon points="385,0 440,55 385,55" fill="#d4c2fe"/><rect x="440" y="0" width="55" height="55" fill="#8d5dfd"/><rect x="440" y="0" width="27.5" height="27.5" fill="#d7c6fe"/><polygon points="440,0 467.5,0 467.5,27.5" fill="#302056"/><rect x="467.5" y="0" width="27.5" height="27.5" fill="#cbb5fe"/><polygon points="467.5,0 495,27.5 467.5,27.5" fill="#714aca"/><rect x="440" y="27.5" width="27.5" height="27.5" fill="#c3aafe"/><polygon points="467.5,27.5 467.5,55 440,55" fill="#1c1333"/><rect x="467.5" y="27.5" width="27.5" height="27.5" fill="#e6dcff"/><polygon points="495,27.5 495,55 467.5,55" fill="#533795"/><rect x="495" y="0" width="55" height="55" fill="#ad8afe"/><polygon points="550,0 550,55 495,55" fill="#322159"/><rect x="550" y="0" width="55" height="55" fill="#bda1fe"/><polygon points="550,0 605,55 550,55" fill="#f1ebff"/><rect x="0" y="55" width="55" height="55" fill="#8d5dfd"/><rect x="0" y="55" width="27.5" height="27.5" fill="#9568fd"/><polygon points="27.5,55 27.5,82.5 0,82.5" fill="#6b47c0"/><rect x="27.5" y="55" width="27.5" height="27.5" fill="#8b5bf9"/><polygon points="27.5,55 55,55 27.5,82.5" fill="#704ac9"/><rect x="0" y="82.5" width="27.5" height="27.5" fill="#744dd1"/><polygon points="0,82.5 27.5,82.5 27.5,110" fill="#976cfd"/><rect x="27.5" y="82.5" width="27.5" height="27.5" fill="#bfa4fe"/><polygon points="27.5,82.5 55,82.5 55,110" fill="#3f2a71"/><rect x="55" y="55" width="55" height="55" fill="#ad8afe"/><polygon points="110,55 110,110 55,110" fill="#c6aefe"/><rect x="110" y="55" width="55" height="55" fill="#8d5dfd"/><rect x="110" y="55" width="27.5" height="27.5" fill="#cdb9fe"/><polygon points="137.5,55 137.5,82.5 110,82.5" fill="#e1d4ff"/><rect x="137.5" y="55" width="27.5" height="27.5" fill="#cfbafe"/><polygon points="165,55 165,82.5 137.5,82.5" fill="#b799fe"/><rect x="110" y="82.5" width="27.5" height="27.5" fill="#cfbbfe"/><polygon points="110,82.5 137.5,82.5 137.5,110" fill="#b495fe"/><rect x="137.5" y="82.5" width="27.5" height="27.5" fill="#090610"/><polygon points="137.5,82.5 165,110 137.5,110" fill="#d2befe"/><rect x="165" y="55" width="55" height="55" fill="#8d5dfd"/><rect x="165" y="55" width="27.5" height="27.5" fill="#b596fe"/><polygon points="165,55 192.5,55 192.5,82.5" fill="#9f76fd"/><rect x="192.5" y="55" width="27.5" height="27.5" fill="#b291fe"/><polygon points="220,55 220,82.5 192.5,82.5" fill="#eee7ff"/><rect x="165" y="82.5" width="27.5" height="27.5" fill="#f6f2ff"/><polygon points="165,82.5 192.5,82.5 192.5,110" fill="#b393fe"/><rect x="192.5" y="82.5" width="27.5" height="27.5" fill="#c1a7fe"/><polygon points="220,82.5 220,110 192.5,110" fill="#c3aafe"/><rect x="220" y="55" width="55" height="55" fill="#8d5dfd"/><rect x="220" y="55" width="27.5" height="27.5" fill="#895af5"/><polygon points="220,55 247.5,55 220,82.5" fill="#1d1334"/><rect x="247.5" y="55" width="27.5" height="27.5" fill="#cbb5fe"/><polygon points="247.5,55 275,55 247.5,82.5" fill="#c2a8fe"/><rect x="220" y="82.5" width="27.5" height="27.5" fill="#b292fe"/><polygon points="220,82.5 247.5,82.5 247.5,110" fill="#774fd6"/><rect x="247.5" y="82.5" width="27.5" height="27.5" fill="#8b5cfa"/><polygon points="275,82.5 275,110 247.5,110" fill="#e6dbff"/><rect x="275" y="55" width="55" height="55" fill="#0b0714"/><polygon points="275,55 330,55 330,110" fill="#774fd6"/><rect x="330" y="55" width="55" height="55" fill="#8d5dfd"/><rect x="330" y="55" width="27.5" height="27.5" fill="#d2bffe"/><polygon points="330,55 357.5,82.5 330,82.5" fill="#c6affe"/><rect x="357.5" y="55" width="27.5" height="27.5" fill="#56399a"/><polygon points="385,55 385,82.5 357.5,82.5" fill="#f6f3ff"/><rect x="330" y="82.5" width="27.5" height="27.5" fill="#593ba1"/><polygon points="330,82.5 357.5,110 330,110" fill="#20153a"/><rect x="357.5" y="82.5" width="27.5" height="27.5" fill="#2b1d4e"/><polygon points="357.5,82.5 385,110 357.5,110" fill="#cbb6fe"/><rect x="385" y="55" width="55" height="55" fill="#8d5dfd"/><rect x="385" y="55" width="27.5" height="27.5" fill="#201539"/><polygon points="412.5,55 412.5,82.5 385,82.5" fill="#7a51db"/><rect x="412.5" y="55" width="27.5" height="27.5" fill="#543897"/><polygon points="412.5,55 440,55 412.5,82.5" fill="#9062fd"/><rect x="385" y="82.5" width="27.5" height="27.5" fill="#e7ddff"/><polygon points="385,82.5 412.5,82.5 412.5,110" fill="#a179fd"/><rect x="412.5" y="82.5" width="27.5" height="27.5" fill="#603fad"/><polygon points="412.5,82.5 440,82.5 440,110" fill="#ede6ff"/><rect x="440" y="55" width="55" height="55" fill="#8d5dfd"/><rect x="440" y="55" width="27.5" height="27.5" fill="#6240af"/><polygon points="467.5,55 467.5,82.5 440,82.5" fill="#b798fe"/><rect x="467.5" y="55" width="27.5" height="27.5" fill="#100a1c"/><polygon points="495,55 495,82.5 467.5,82.5" fill="#a884fe"/><rect x="440" y="82.5" width="27.5" height="27.5" fill="#5e3ea8"/><polygon points="440,82.5 467.5,82.5 440,110" fill="#dfd1ff"/><rect x="467.5" y="82.5" width="27.5" height="27.5" fill="#c7b0fe"/><polygon points="467.5,82.5 495,82.5 467.5,110" fill="#06040c"/><rect x="495" y="55" width="55" height="55" fill="#9669fd"/><polygon points="495,55 550,55 550,110" fill="#3f2971"/><rect x="550" y="55" width="55" height="55" fill="#382565"/><polygon points="605,55 605,110 550,110" fill="#a078fd"/><rect x="0" y="110" width="55" height="55" fill="#895bf7"/><polygon points="0,110 55,110 0,165" fill="#c8b1fe"/><rect x="55" y="110" width="55" height="55" fill="#6140ae"/><polygon points="55,110 110,110 55,165" fill="#9e75fd"/><rect x="110" y="110" width="55" height="55" fill="#120c1f"/><polygon points="110,110 165,110 165,165" fill="#c1a7fe"/><rect x="165" y="110" width="55" height="55" fill="#291b4a"/><polygon points="165,110 220,110 165,165" fill="#8d5dfd"/><rect x="220" y="110" width="55" height="55" fill="#f8f5ff"/><polygon points="275,110 275,165 220,165" fill="#895af6"/><rect x="275" y="110" width="55" height="55" fill="#8d5dfd"/><rect x="275" y="110" width="27.5" height="27.5" fill="#e9e0ff"/><polygon points="302.5,110 302.5,137.5 275,137.5" fill="#7b51dd"/><rect x="302.5" y="110" width="27.5" height="27.5" fill="#513591"/><polygon points="302.5,110 330,137.5 302.5,137.5" fill="#ba9dfe"/><rect x="275" y="137.5" width="27.5" height="27.5" fill="#ece5ff"/><polygon points="275,137.5 302.5,137.5 275,165" fill="#34225d"/><rect x="302.5" y="137.5" width="27.5" height="27.5" fill="#ebe3ff"/><polygon points="302.5,137.5 330,137.5 330,165" fill="#462e7d"/><rect x="330" y="110" width="55" height="55" fill="#e2d6ff"/><polygon points="330,110 385,110 385,165" fill="#8f60fd"/><rect x="385" y="110" width="55" height="55" fill="#6b47c0"/><polygon points="385,110 440,110 385,165" fill="#9a70fd"/><rect x="440" y="110" width="55" height="55" fill="#8d5dfd"/><rect x="440" y="110" width="27.5" height="27.5" fill="#6f49c8"/><polygon points="440,110 467.5,110 467.5,137.5" fill="#6140ad"/><rect x="467.5" y="110" width="27.5" height="27.5" fill="#a985fe"/><polygon points="467.5,110 495,137.5 467.5,137.5" fill="#bb9ffe"/><rect x="440" y="137.5" width="27.5" height="27.5" fill="#d6c4fe"/><polygon points="440,137.5 467.5,165 440,165" fill="#7b51dc"/><rect x="467.5" y="137.5" width="27.5" height="27.5" fill="#312058"/><polygon points="467.5,137.5 495,165 467.5,165" fill="#cdb8fe"/><rect x="495" y="110" width="55" height="55" fill="#8d5dfd"/><rect x="495" y="110" width="27.5" height="27.5" fill="#e2d6ff"/><polygon points="522.5,110 522.5,137.5 495,137.5" fill="#f5f1ff"/><rect x="522.5" y="110" width="27.5" height="27.5" fill="#885af5"/><polygon points="550,110 550,137.5 522.5,137.5" fill="#d2bffe"/><rect x="495" y="137.5" width="27.5" height="27.5" fill="#ebe3ff"/><polygon points="495,137.5 522.5,137.5 495,165" fill="#b393fe"/><rect x="522.5" y="137.5" width="27.5" height="27.5" fill="#452e7d"/><polygon points="522.5,137.5 550,137.5 522.5,165" fill="#e9e0ff"/><rect x="550" y="110" width="55" height="55" fill="#9f76fd"/><polygon points="550,110 605,110 550,165" fill="#aa86fe"/><rect x="0" y="165" width="55" height="55" fill="#c3aafe"/><polygon points="0,165 55,165 55,220" fill="#6844ba"/><rect x="55" y="165" width="55" height="55" fill="#8d5dfd"/><rect x="55" y="165" width="27.5" height="27.5" fill="#6442b4"/><polygon points="82.5,165 82.5,192.5 55,192.5" fill="#281a47"/><rect x="82.5" y="165" width="27.5" height="27.5" fill="#7950da"/><polygon points="82.5,165 110,192.5 82.5,192.5" fill="#020104"/><rect x="55" y="192.5" width="27.5" height="27.5" fill="#251842"/><polygon points="55,192.5 82.5,220 55,220" fill="#c7affe"/><rect x="82.5" y="192.5" width="27.5" height="27.5" fill="#8055e6"/><polygon points="82.5,192.5 110,220 82.5,220" fill="#d3c1fe"/><rect x="110" y="165" width="55" height="55" fill="#cab3fe"/><polygon points="110,165 165,165 165,220" fill="#1c1333"/><rect x="165" y="165" width="55" height="55" fill="#724bcd"/><polygon points="220,165 220,220 165,220" fill="#241841"/><rect x="220" y="165" width="55" height="55" fill="#8d5dfd"/><rect x="220" y="165" width="27.5" height="27.5" fill="#6c47c1"/><polygon points="220,165 247.5,192.5 220,192.5" fill="#ece4ff"/><rect x="247.5" y="165" width="27.5" height="27.5" fill="#5b3ca4"/><polygon points="247.5,165 275,165 275,192.5" fill="#c9b2fe"/><rect x="220" y="192.5" width="27.5" height="27.5" fill="#754dd3"/><polygon points="247.5,192.5 247.5,220 220,220" fill="#bea3fe"/><rect x="247.5" y="192.5" width="27.5" height="27.5" fill="#6442b4"/><polygon points="247.5,192.5 275,220 247.5,220" fill="#281b48"/><rect x="275" y="165" width="55" height="55" fill="#8d5dfd"/><rect x="275" y="165" width="27.5" height="27.5" fill="#744dd0"/><polygon points="302.5,165 302.5,192.5 275,192.5" fill="#f3eeff"/><rect x="302.5" y="165" width="27.5" height="27.5" fill="#ac89fe"/><polygon points="302.5,165 330,165 302.5,192.5" fill="#f7f3ff"/><rect x="275" y="192.5" width="27.5" height="27.5" fill="#e0d3ff"/><polygon points="275,192.5 302.5,192.5 275,220" fill="#9e75fd"/><rect x="302.5" y="192.5" width="27.5" height="27.5" fill="#9a70fd"/><polygon points="330,192.5 330,220 302.5,220" fill="#cab4fe"/><rect x="330" y="165" width="55" height="55" fill="#8d5dfd"/><rect x="330" y="165" width="27.5" height="27.5" fill="#6844ba"/><polygon points="330,165 357.5,192.5 330,192.5" fill="#9568fd"/><rect x="357.5" y="165" width="27.5" height="27.5" fill="#9062fd"/><polygon points="385,165 385,192.5 357.5,192.5" fill="#b08ffe"/><rect x="330" y="192.5" width="27.5" height="27.5" fill="#a37cfd"/><polygon points="330,192.5 357.5,192.5 357.5,220" fill="#6d48c4"/><rect x="357.5" y="192.5" width="27.5" height="27.5" fill="#bb9efe"/><polygon points="357.5,192.5 385,220 357.5,220" fill="#6b47c0"/><rect x="385" y="165" width="55" height="55" fill="#8d5dfd"/><rect x="385" y="165" width="27.5" height="27.5" fill="#9467fd"/><polygon points="385,165 412.5,165 385,192.5" fill="#724bcc"/><rect x="412.5" y="165" width="27.5" height="27.5" fill="#e3d8ff"/><polygon points="412.5,165 440,165 440,192.5" fill="#1b1230"/><rect x="385" y="192.5" width="27.5" height="27.5" fill="#e5daff"/><polygon points="385,192.5 412.5,192.5 385,220" fill="#bca0fe"/><rect x="412.5" y="192.5" width="27.5" height="27.5" fill="#402a73"/><polygon points="412.5,192.5 440,192.5 440,220" fill="#f0e9ff"/><rect x="440" y="165" width="55" height="55" fill="#8d5dfd"/><rect x="440" y="165" width="27.5" height="27.5" fill="#08050e"/><polygon points="440,165 467.5,165 467.5,192.5" fill="#e9e0ff"/><rect x="467.5" y="165" width="27.5" height="27.5" fill="#9a70fd"/><polygon points="467.5,165 495,165 495,192.5" fill="#9264fd"/><rect x="440" y="192.5" width="27.5" height="27.5" fill="#5b3ca3"/><polygon points="440,192.5 467.5,192.5 467.5,220" fill="#322159"/><rect x="467.5" y="192.5" width="27.5" height="27.5" fill="#392667"/><polygon points="467.5,192.5 495,220 467.5,220" fill="#a681fd"/><rect x="495" y="165" width="55" height="55" fill="#8d5dfd"/><rect x="495" y="165" width="27.5" height="27.5" fill="#110b1f"/><polygon points="495,165 522.5,192.5 495,192.5" fill="#4f348d"/><rect x="522.5" y="165" width="27.5" height="27.5" fill="#e9dfff"/><polygon points="550,165 550,192.5 522.5,192.5" fill="#b89bfe"/><rect x="495" y="192.5" width="27.5" height="27.5" fill="#cfbbfe"/><polygon points="522.5,192.5 522.5,220 495,220" fill="#362461"/><rect x="522.5" y="192.5" width="27.5" height="27.5" fill="#0f0a1a"/><polygon points="522.5,192.5 550,192.5 522.5,220" fill="#603fac"/><rect x="550" y="165" width="55" height="55" fill="#e8deff"/><polygon points="550,165 605,165 550,220" fill="#c7b0fe"/><rect x="0" y="220" width="55" height="55" fill="#8d5dfd"/><rect x="0" y="220" width="27.5" height="27.5" fill="#120c21"/><polygon points="0,220 27.5,247.5 0,247.5" fill="#724bcd"/><rect x="27.5" y="220" width="27.5" height="27.5" fill="#9d73fd"/><polygon points="27.5,220 55,220 55,247.5" fill="#8356eb"/><rect x="0" y="247.5" width="27.5" height="27.5" fill="#6b47c0"/><polygon points="27.5,247.5 27.5,275 0,275" fill="#f4efff"/><rect x="27.5" y="247.5" width="27.5" height="27.5" fill="#150e25"/><polygon points="55,247.5 55,275 27.5,275" fill="#d6c5fe"/><rect x="55" y="220" width="55" height="55" fill="#9568fd"/><polygon points="55,220 110,220 55,275" fill="#cdb8fe"/><rect x="110" y="220" width="55" height="55" fill="#412b75"/><polygon points="110,220 165,220 110,275" fill="#9466fd"/><rect x="165" y="220" width="55" height="55" fill="#472f7f"/><polygon points="220,220 220,275 165,275" fill="#c9b2fe"/><rect x="220" y="220" width="55" height="55" fill="#754dd1"/><polygon points="275,220 275,275 220,275" fill="#bca0fe"/><rect x="275" y="220" width="55" height="55" fill="#030205"/><polygon points="275,220 330,220 275,275" fill="#b89afe"/><rect x="330" y="220" width="55" height="55" fill="#a37cfd"/><polygon points="330,220 385,220 330,275" fill="#c3aafe"/><rect x="385" y="220" width="55" height="55" fill="#f0eaff"/><polygon points="385,220 440,220 385,275" fill="#d5c3fe"/><rect x="440" y="220" width="55" height="55" fill="#b697fe"/><polygon points="495,220 495,275 440,275" fill="#c4abfe"/><rect x="495" y="220" width="55" height="55" fill="#8d5dfd"/><rect x="495" y="220" width="27.5" height="27.5" fill="#3d286e"/><polygon points="495,220 522.5,220 495,247.5" fill="#ddcffe"/><rect x="522.5" y="220" width="27.5" height="27.5" fill="#e8deff"/><polygon points="522.5,220 550,247.5 522.5,247.5" fill="#583a9e"/><rect x="495" y="247.5" width="27.5" height="27.5" fill="#ad8afe"/><polygon points="495,247.5 522.5,275 495,275" fill="#a781fd"/><rect x="522.5" y="247.5" width="27.5" height="27.5" fill="#b799fe"/><polygon points="522.5,247.5 550,275 522.5,275" fill="#885af4"/><rect x="550" y="220" width="55" height="55" fill="#8d5dfd"/><rect x="550" y="220" width="27.5" height="27.5" fill="#563899"/><polygon points="577.5,220 577.5,247.5 550,247.5" fill="#bca0fe"/><rect x="577.5" y="220" width="27.5" height="27.5" fill="#1e1435"/><polygon points="577.5,220 605,220 605,247.5" fill="#cbb5fe"/><rect x="550" y="247.5" width="27.5" height="27.5" fill="#f6f3ff"/><polygon points="550,247.5 577.5,275 550,275" fill="#1a112f"/><rect x="577.5" y="247.5" width="27.5" height="27.5" fill="#9f76fd"/><polygon points="577.5,247.5 605,275 577.5,275" fill="#e1d4ff"/><rect x="0" y="275" width="55" height="55" fill="#8d5dfd"/><rect x="0" y="275" width="27.5" height="27.5" fill="#9f77fd"/><polygon points="0,275 27.5,302.5 0,302.5" fill="#d8c7fe"/><rect x="27.5" y="275" width="27.5" height="27.5" fill="#8054e5"/><polygon points="55,275 55,302.5 27.5,302.5" fill="#976bfd"/><rect x="0" y="302.5" width="27.5" height="27.5" fill="#160e27"/><polygon points="0,302.5 27.5,330 0,330" fill="#1f1538"/><rect x="27.5" y="302.5" width="27.5" height="27.5" fill="#a37cfd"/><polygon points="27.5,302.5 55,302.5 55,330" fill="#422c77"/><rect x="55" y="275" width="55" height="55" fill="#8d5dfd"/><rect x="55" y="275" width="27.5" height="27.5" fill="#e2d6ff"/><polygon points="55,275 82.5,275 55,302.5" fill="#8c5cfb"/><rect x="82.5" y="275" width="27.5" height="27.5" fill="#c8b1fe"/><polygon points="82.5,275 110,275 82.5,302.5" fill="#8e5efd"/><rect x="55" y="302.5" width="27.5" height="27.5" fill="#9d74fd"/><polygon points="82.5,302.5 82.5,330 55,330" fill="#e6dbff"/><rect x="82.5" y="302.5" width="27.5" height="27.5" fill="#503590"/><polygon points="82.5,302.5 110,330 82.5,330" fill="#f2edff"/><rect x="110" y="275" width="55" height="55" fill="#ab87fe"/><polygon points="110,275 165,275 110,330" fill="#21163b"/><rect x="165" y="275" width="55" height="55" fill="#8d5dfd"/><rect x="165" y="275" width="27.5" height="27.5" fill="#56399b"/><polygon points="165,275 192.5,275 192.5,302.5" fill="#e3d7ff"/><rect x="192.5" y="275" width="27.5" height="27.5" fill="#1e1436"/><polygon points="192.5,275 220,275 192.5,302.5" fill="#cbb5fe"/><rect x="165" y="302.5" width="27.5" height="27.5" fill="#8d5dfd"/><polygon points="165,302.5 192.5,302.5 192.5,330" fill="#301f56"/><rect x="192.5" y="302.5" width="27.5" height="27.5" fill="#c5acfe"/><polygon points="192.5,302.5 220,302.5 220,330" fill="#986cfd"/><rect x="220" y="275" width="55" height="55" fill="#3c286c"/><polygon points="275,275 275,330 220,330" fill="#9061fd"/><rect x="275" y="275" width="55" height="55" fill="#8d5dfd"/><rect x="275" y="275" width="27.5" height="27.5" fill="#a17afd"/><polygon points="302.5,275 302.5,302.5 275,302.5" fill="#ae8cfe"/><rect x="302.5" y="275" width="27.5" height="27.5" fill="#c7b0fe"/><polygon points="302.5,275 330,275 302.5,302.5" fill="#0c0816"/><rect x="275" y="302.5" width="27.5" height="27.5" fill="#a27bfd"/><polygon points="275,302.5 302.5,302.5 275,330" fill="#e8dfff"/><rect x="302.5" y="302.5" width="27.5" height="27.5" fill="#050309"/><polygon points="302.5,302.5 330,302.5 330,330" fill="#ac89fe"/><rect x="330" y="275" width="55" height="55" fill="#08050d"/><polygon points="330,275 385,275 330,330" fill="#3b276a"/><rect x="385" y="275" width="55" height="55" fill="#f1ebff"/><polygon points="385,275 440,330 385,330" fill="#8b5bf9"/><rect x="440" y="275" width="55" height="55" fill="#170f28"/><polygon points="495,275 495,330 440,330" fill="#8356eb"/><rect x="495" y="275" width="55" height="55" fill="#8d5dfd"/><rect x="495" y="275" width="27.5" height="27.5" fill="#120c21"/><polygon points="495,275 522.5,275 495,302.5" fill="#7f54e3"/><rect x="522.5" y="275" width="27.5" height="27.5" fill="#bda2fe"/><polygon points="522.5,275 550,302.5 522.5,302.5" fill="#b99bfe"/><rect x="495" y="302.5" width="27.5" height="27.5" fill="#2a1c4c"/><polygon points="495,302.5 522.5,330 495,330" fill="#b394fe"/><rect x="522.5" y="302.5" width="27.5" height="27.5" fill="#513590"/><polygon points="522.5,302.5 550,302.5 522.5,330" fill="#030205"/><rect x="550" y="275" width="55" height="55" fill="#8d5dfd"/><rect x="550" y="275" width="27.5" height="27.5" fill="#c7b0fe"/><polygon points="550,275 577.5,302.5 550,302.5" fill="#e4d9ff"/><rect x="577.5" y="275" width="27.5" height="27.5" fill="#603fac"/><polygon points="577.5,275 605,275 605,302.5" fill="#32215b"/><rect x="550" y="302.5" width="27.5" height="27.5" fill="#dbcbfe"/><polygon points="577.5,302.5 577.5,330 550,330" fill="#7d53e1"/><rect x="577.5" y="302.5" width="27.5" height="27.5" fill="#8457ed"/><polygon points="577.5,302.5 605,330 577.5,330" fill="#dacbfe"/></g></svg>